<?xml version="1.0" encoding="iso-8859-1"?>
<!-- Generator: Adobe Illustrator 16.0.0, SVG Export Plug-In . SVG Version: 6.00 Build 0)  -->
<!DOCTYPE svg PUBLIC "-//W3C//DTD SVG 1.1//EN" "http://www.w3.org/Graphics/SVG/1.1/DTD/svg11.dtd">
<svg xmlns="http://www.w3.org/2000/svg" xmlns:xlink="http://www.w3.org/1999/xlink" version="1.1" id="Capa_1" x="0px" y="0px" width="512px" height="512px" viewBox="0 0 106.082 106.083" style="enable-background:new 0 0 106.082 106.083;" xml:space="preserve">
<g>
	<g>
		<path d="M93.383,58.991c-0.004-19.248-13.529-35.332-31.592-39.282c-3.163-0.533-8.439-7.918-4.006-12.817L40.326,6.838    c0.188,8.605,2.924,13.174,2.877,13.186c1.166,2.413,2.829,4.513,4.729,6.363c4.692,4.57,12.076,6.916,12.076,6.916    c11.145,3.171,19.314,14.267,19.32,25.579c0,0.009,0,0.017,0,0.025c0.008,14.696-11.902,26.614-26.598,26.623    c-14.697,0.007-26.617-11.901-26.623-26.599c0-0.009,0-0.017,0-0.024c-0.008-14.012,9.867-24.962,23.607-26.537l-0.061-0.102    c-2.029-1.301-6.826-6.067-9.686-11.274C24.23,26.456,12.932,41.412,12.936,59.01c0,0.006,0,0.012,0,0.018    c0.006,22.217,18.018,40.222,40.232,40.216s40.221-18.019,40.215-40.231C93.383,59.003,93.383,58.998,93.383,58.991z" fill="#f0f0f0"/>
		<path d="M0,86.289l6.922,11.735c6.461-0.656,10.68-4.51,14.596-8.728c-3.111-3.36-5.668-6.721-7.375-11.135    C11.223,83.369,5.848,86.434,0,86.289z" fill="#f0f0f0"/>
		<path d="M91.637,78.915c-2.318,3.934-4.857,7.753-7.975,11.285c4.664,4.564,8.828,7.021,14.746,8.728    c3.52-4.305,6.16-8.435,7.674-12.339C100.785,86.889,95.137,84.436,91.637,78.915z" fill="#f0f0f0"/>
	</g>
</g>
<g>
</g>
<g>
</g>
<g>
</g>
<g>
</g>
<g>
</g>
<g>
</g>
<g>
</g>
<g>
</g>
<g>
</g>
<g>
</g>
<g>
</g>
<g>
</g>
<g>
</g>
<g>
</g>
<g>
</g>
</svg>
