<?xml version="1.0" encoding="iso-8859-1"?>
<!-- Generator: Adobe Illustrator 16.0.0, SVG Export Plug-In . SVG Version: 6.00 Build 0)  -->
<!DOCTYPE svg PUBLIC "-//W3C//DTD SVG 1.1//EN" "http://www.w3.org/Graphics/SVG/1.1/DTD/svg11.dtd">
<svg xmlns="http://www.w3.org/2000/svg" xmlns:xlink="http://www.w3.org/1999/xlink" version="1.1" id="Capa_1" x="0px" y="0px" width="512px" height="512px" viewBox="0 0 97.78 97.78" style="enable-background:new 0 0 97.78 97.78;" xml:space="preserve">
<g>
	<g>
		<polygon points="90.979,58.552 97.78,50.183 70.577,44.166 92.439,26.718 82.871,22.196 80.331,11.732 58.807,28.996     58.622,1.194 49.158,5.703 53.092,40.317 82.504,22.197 58.605,46.554 90.643,58.306 56.637,54.695 67.689,87.453 49.152,58.437     30.742,87.453 41.799,54.761 7.137,58.573 39.698,46.685 15.604,21.869 44.818,40.12 49.145,5.708 49.129,5.717 39.682,1.532     39.604,29.149 17.633,11.548 15.541,22.01 5.787,26.61 27.311,44.089 0,50.183 7.094,58.737 4.599,69.015 31.528,62.923     19.464,88.14 30.558,87.847 37.066,96.586 49.053,71.106 61.238,96.402 67.7,87.847 78.764,88.031 66.131,62.998 93.596,68.752       " fill="#f0f0f0"/>
		<polygon points="49.152,5.653 49.145,5.708 49.158,5.703   " fill="#f0f0f0"/>
	</g>
</g>
<g>
</g>
<g>
</g>
<g>
</g>
<g>
</g>
<g>
</g>
<g>
</g>
<g>
</g>
<g>
</g>
<g>
</g>
<g>
</g>
<g>
</g>
<g>
</g>
<g>
</g>
<g>
</g>
<g>
</g>
</svg>
