<?xml version="1.0" encoding="iso-8859-1"?>
<!-- Generator: Adobe Illustrator 16.0.0, SVG Export Plug-In . SVG Version: 6.00 Build 0)  -->
<!DOCTYPE svg PUBLIC "-//W3C//DTD SVG 1.1//EN" "http://www.w3.org/Graphics/SVG/1.1/DTD/svg11.dtd">
<svg xmlns="http://www.w3.org/2000/svg" xmlns:xlink="http://www.w3.org/1999/xlink" version="1.1" id="Capa_1" x="0px" y="0px" width="512px" height="512px" viewBox="0 0 101.87 101.871" style="enable-background:new 0 0 101.87 101.871;" xml:space="preserve">
<g>
	<g>
		<path d="M59.982,52.064H48.094l4.649-7.262h8.933c6.375,0,10.115-2.36,12.399-6.322l11.313-18.045h-41.18    c-4.852,0-8.827,2.97-10.99,6.72L0,81.435h10.638l29.517-48.132c1.184-2.053,4.371-3.831,7.287-3.831h22.167l-2.774,4.672    c-0.655,1.136-1.978,2.105-3.103,2.105H51.191c-2.13,0-3.912,1.09-4.719,2.49L34.771,57.25c-1.117,1.938-0.466,3.205,1.358,3.205    h15.057l-12.824,20.98h10.639l14.796-24.25C65.62,54.024,64.062,52.064,59.982,52.064z" fill="#f0f0f0"/>
		<polygon points="91.232,52.387 73.824,81.435 84.462,81.435 101.87,52.387   " fill="#f0f0f0"/>
		<polygon points="73.501,52.387 56.094,81.435 66.73,81.435 84.141,52.387   " fill="#f0f0f0"/>
	</g>
</g>
<g>
</g>
<g>
</g>
<g>
</g>
<g>
</g>
<g>
</g>
<g>
</g>
<g>
</g>
<g>
</g>
<g>
</g>
<g>
</g>
<g>
</g>
<g>
</g>
<g>
</g>
<g>
</g>
<g>
</g>
</svg>
